<svg width="733" height="74" viewBox="0 0 733 74" fill="none" xmlns="http://www.w3.org/2000/svg">
<path d="M494.067 0.197074C497.868 0.394142 501.277 1.28096 504.292 2.85752C505.537 3.51443 506.783 4.3684 508.028 5.41944C509.273 6.40479 510.355 7.65291 511.272 9.16378C512.256 10.6747 513.042 12.4483 513.632 14.4847C514.222 16.5211 514.517 18.8859 514.517 21.5792C514.517 24.3382 514.222 26.7359 513.632 28.7723C513.042 30.8087 512.256 32.6152 511.272 34.1917C510.355 35.7026 509.273 36.9836 508.028 38.0346C506.783 39.0857 505.537 39.9396 504.292 40.5965C501.277 42.2388 497.868 43.1585 494.067 43.3555H469.29V74H457V30.9401H493.182C493.247 30.9401 493.772 30.9072 494.755 30.8415C495.738 30.7102 496.754 30.3489 497.803 29.7577C498.917 29.1664 499.933 28.2468 500.851 26.9987C501.768 25.7506 502.227 23.9441 502.227 21.5792C502.227 19.2801 501.735 17.5393 500.752 16.3569C499.835 15.1087 498.819 14.1891 497.704 13.5979C496.393 12.8753 494.886 12.4811 493.182 12.4155H457V0.098534H494.067V0.197074Z" fill="#325FFF"/>
<path d="M548.655 0L585.623 74H572.055L563.698 59.0226H533.71L526.729 74H511.785L548.655 0ZM540.494 46.5087H558.192L548.655 27.4913L540.494 46.5087Z" fill="#325FFF"/>
<path d="M657.996 74H644.33L628.009 43.8482H612.867V74H600.676V0.098534H636.169C639.971 0.295606 643.379 1.21527 646.394 2.85752C647.64 3.58012 648.885 4.46693 650.13 5.51798C651.376 6.56902 652.457 7.84998 653.375 9.36086C654.358 10.8717 655.145 12.6782 655.735 14.7803C656.325 16.8167 656.62 19.2144 656.62 21.9734C656.62 26.4403 655.898 30.119 654.456 33.0093C653.014 35.834 651.376 38.0675 649.541 39.7097C647.771 41.2863 646.067 42.3702 644.428 42.9614C642.855 43.5526 641.904 43.8482 641.577 43.8482L657.996 74ZM612.867 31.6298H636.169C637.677 31.5641 639.02 31.17 640.2 30.4474C641.249 29.8562 642.199 28.9037 643.051 27.5899C643.904 26.2761 644.33 24.4039 644.33 21.9734C644.33 19.6085 643.904 17.7692 643.051 16.4554C642.199 15.1416 641.249 14.1891 640.2 13.5979C639.02 12.8753 637.677 12.4811 636.169 12.4155H612.867V31.6298Z" fill="#325FFF"/>
<path d="M733 0L703.504 36.0639L733 74H716.777L687.281 36.0639L716.777 0H733ZM675.483 74V0H687.281V74H675.483Z" fill="#325FFF"/>
<path d="M62.6589 62.8803C59.1833 66.2917 55.2159 68.9814 50.7567 70.9495C46.2974 72.852 41.6415 73.8032 36.7888 73.8032C32.0016 73.8032 27.3784 72.852 22.9192 70.9495C18.5255 68.9814 14.6237 66.3245 11.2137 62.9787C7.80367 59.633 5.08222 55.7296 3.04933 51.2686C1.01644 46.8076 0 42.0514 0 37C0 32.211 0.950868 27.6188 2.8526 23.2234C4.81992 18.7624 7.47579 14.8262 10.8202 11.4149C14.1647 8.00355 18.0665 5.28103 22.5257 3.24734C26.985 1.21365 31.7393 0.196806 36.7888 0.196806C41.6415 0.196806 46.2974 1.18085 50.7567 3.14894C55.2159 5.05142 59.1833 7.70833 62.6589 11.1197L54.4946 19.2872C51.8059 17.2535 49.0189 15.6135 46.1335 14.367C43.3137 13.055 40.1988 12.3989 36.7888 12.3989C33.3787 12.3989 30.1655 13.055 27.1489 14.367C24.1979 15.6135 21.6077 17.352 19.378 19.5824C17.214 21.8129 15.4762 24.4371 14.1647 27.4548C12.9187 30.4069 12.2957 33.5887 12.2957 37C12.2957 40.4114 12.9187 43.6259 14.1647 46.6436C15.4762 49.5957 17.214 52.1871 19.378 54.4176C21.6077 56.5824 24.1979 58.3209 27.1489 59.633C30.1655 60.8794 33.3787 61.5027 36.7888 61.5027C40.1988 61.5027 43.2809 60.8794 46.0351 59.633C48.7894 58.3865 51.1829 56.7465 53.2158 54.7128L62.6589 62.8803Z" fill="#FF611E"/>
<path d="M83.7474 0.196806H95.9448V74H83.7474V0.196806Z" fill="#FF611E"/>
<path d="M168.237 9.64362L180.533 0V74L129.875 28.8324V64.3564L117.579 74V0L168.237 46.5452V9.64362Z" fill="#FF611E"/>
<path d="M251.411 12.4973H214.426V30.8989H245.903V43.1995H214.426V61.6995H251.411V74H202.13V0.196806H251.411V12.4973Z" fill="#FF611E"/>
<path d="M308.103 29.2261L345.088 0.098403V74H332.793V25.4867L308.103 44.9707L283.511 25.4867V74H271.216V0.098403L308.103 29.2261Z" fill="#FF611E"/>
<path d="M397.015 0.098403L434 74H420.426L412.064 59.0426H382.063L375.079 74H360.127L397.015 0.098403ZM388.85 46.5452H406.556L397.015 27.5532L388.85 46.5452Z" fill="#FF611E"/>
</svg>
